<?xml version="1.0" encoding="utf-8"?>
<!-- Generator: Adobe Illustrator 27.5.0, SVG Export Plug-In . SVG Version: 6.00 Build 0)  -->
<svg version="1.1" xmlns="http://www.w3.org/2000/svg" xmlns:xlink="http://www.w3.org/1999/xlink" x="0px" y="0px"
	 viewBox="125 0 750 500" style="enable-background:new 125 0 750 500;" xml:space="preserve">
<g id="BACKGROUND">
	<rect x="125" style="fill:#F9F7ED;" width="750" height="500"/>
</g>
<g id="OBJECTS">
	<path style="fill:none;stroke:#D8F1EA;stroke-miterlimit:10;" d="M733.56,315.48"/>
	<path style="fill:#6B616B;" d="M725.07,445.7"/>
	<g>
		<defs>
			<rect id="SVGID_1_" x="125" width="750" height="500"/>
		</defs>
		<clipPath id="SVGID_00000132783199524542697700000005549376324076730014_">
			<use xlink:href="#SVGID_1_"  style="overflow:visible;"/>
		</clipPath>
		<g style="clip-path:url(#SVGID_00000132783199524542697700000005549376324076730014_);">
			<g>
				<g>
					<g>
						<rect x="125" style="fill:#F0F2F2;" width="88" height="426.28"/>
						<g>
							<g>
								<polygon style="fill:#9AB2B8;" points="134.06,419 134.06,118.33 197.15,132.63 197.15,419 								"/>
								<g>
									<polygon style="fill:#C3DBDE;" points="193.44,139.77 193.44,419 138.7,419 139.16,131.08 139.16,128.75 									"/>
									<polygon style="fill:#DFEFF0;" points="189.7,143.48 189.7,419 138.7,419 139.15,133 									"/>
								</g>
							</g>
							<polygon style="fill:#FFFCF5;" points="151.1,236.91 151.1,160.61 181.77,166.12 181.77,236.91 							"/>
						</g>
					</g>
					<g>
						<g>
							<rect x="301.07" y="135.72" style="fill:#DFEFF0;" width="117" height="67"/>
							<path style="fill:#C3DBDE;" d="M351.26,192.41c0.53-3.81,0.36-7.7-0.49-11.46c-5.44-2.35-10.48-5.11-14.99-8.52
								c-0.52-1.92-0.19-3.55,0.38-5.09c1.81,0.18,3.55,0.17,5.26-0.04c0.74-1.75,1.1-3.58,1.12-5.41c0.37-0.29,0.74-0.39,1.04-0.59
								c0.31-0.2,0.54-0.54,0.51-0.89c-0.08-0.98-1.81-1.05-2.12-1.98c-0.24-1.33-0.02-2.29,0.38-3.17
								c-0.22-4.33-3.56-8.35-7.87-9.3c-4.31-0.95-9.17,1.26-11.09,5.06c-1.93,3.8-0.73,8.79,3,11.66
								c-0.22,2.57-0.69,5.12-1.57,7.81c-5.5,2.39-10.78,5.23-15.46,8.68c-0.99,2.94-0.91,13.55-0.56,13.58
								C324.06,192.72,335.14,192.41,351.26,192.41z"/>
							<g>
								<g>
									<rect x="367.55" y="179.4" style="fill:#9AB2B8;" width="38.02" height="1.38"/>
									<rect x="359.57" y="183.55" style="fill:#9AB2B8;" width="46" height="1.38"/>
									<rect x="359.57" y="187.7" style="fill:#9AB2B8;" width="46" height="1.38"/>
									<rect x="359.57" y="191.84" style="fill:#9AB2B8;" width="46" height="1.38"/>
								</g>
								<g>
									<path style="fill:#9AB2B8;" d="M381.95,145.22c-8,0-14.49,6.49-14.49,14.49s6.49,14.49,14.49,14.49
										c1.76,0,3.43-0.31,4.99-0.88l-4.99-13.61l13.2,6c0.84-1.83,1.3-3.86,1.3-6C396.44,151.71,389.95,145.22,381.95,145.22z"/>
									<path style="fill:#C3DBDE;" d="M389.46,176.14c3.65-1.34,6.61-4.1,8.21-7.61l-13.2-6L389.46,176.14z"/>
								</g>
							</g>
						</g>
						<g>
							<g>
								<rect x="725.07" y="145.72" style="fill:#DFEFF0;" width="86" height="94.5"/>
								<rect x="725.07" y="145.72" style="fill:#DFEFF0;" width="86" height="94.5"/>
								<g>
									<rect x="745.87" y="212.01" style="fill:#9AB2B8;" width="56.18" height="2.12"/>
									<rect x="734.08" y="218.36" style="fill:#9AB2B8;" width="67.97" height="2.12"/>
									<rect x="734.08" y="224.71" style="fill:#9AB2B8;" width="67.97" height="2.12"/>
									<rect x="734.08" y="231.05" style="fill:#9AB2B8;" width="67.97" height="2.12"/>
								</g>
							</g>
							<g>
								
									<ellipse style="fill:none;stroke:#9AB2B8;stroke-width:3;stroke-miterlimit:10;" cx="768.07" cy="178.87" rx="23.58" ry="23.98"/>
								<g>
									<path style="fill:#C3DBDE;" d="M782.8,171.05c-7.1,4.61-14.05,9.46-20.75,14.68c-2.05,1.61-4.09,3.24-6.1,4.91
										c0,0.03,0,0.06-0.01,0.01c-0.74-1.18-1.48-2.38-2.61-3.29c2.08-1.61,4.18-3.22,6.27-4.82c6.76-5.2,13.64-10.38,20.97-15.49
										C781.18,168.26,781.79,169.46,782.8,171.05z"/>
									<path style="fill:#9AB2B8;" d="M762.05,185.73c-2.05,1.61-4.09,3.24-6.1,4.91c0,0.03,0,0.06-0.01,0.01
										c-0.74-1.18-1.48-2.38-2.61-3.29c2.08-1.61,4.18-3.22,6.27-4.82C760.42,183.6,761.23,184.68,762.05,185.73z"/>
								</g>
								<polygon style="fill:#9AB2B8;" points="749.89,163.25 752.59,160.51 785.2,193.67 782.5,196.41 								"/>
							</g>
						</g>
						<g>
							<g>
								<g>
									<rect x="491" y="130" style="fill:#9AB2B8;" width="144" height="289"/>
									<rect x="498" y="137" style="fill:#C3DBDE;" width="130" height="282"/>
									<rect x="502.96" y="141.5" style="fill:#DFEFF0;" width="125.04" height="277.5"/>
								</g>
								<g>
									<rect x="604.52" y="257.33" style="fill:#C3DBDE;" width="7" height="92.5"/>
									<rect x="607.52" y="255.69" style="fill:#9AB2B8;" width="8" height="92"/>
								</g>
								<g>
									<rect x="500" y="211.64" style="fill:#C3DBDE;" width="128" height="3"/>
									<rect x="500" y="355.91" style="fill:#C3DBDE;" width="128" height="3"/>
								</g>
								<g>
									<rect x="516" y="163.21" style="fill:#9AB2B8;" width="38" height="109"/>
									<g>
										<rect x="520" y="169.21" style="fill:#FFFDF5;" width="30" height="97"/>
										<g>
											<polygon style="fill:#DFEFF0;" points="545.98,169.21 520,198.57 520,169.21 											"/>
											<polygon style="fill:#DFEFF0;" points="550,179.01 520,210.6 520,216.36 550,184.97 											"/>
											<polyline style="fill:#DFEFF0;" points="550,235.99 520,263.47 520,266.21 523.07,266.21 550,240.92 											"/>
											<polygon style="fill:#DFEFF0;" points="550,249.18 550,266.21 529.24,266.21 											"/>
										</g>
									</g>
								</g>
							</g>
							<rect x="510" y="103" style="fill:#DFEFF0;" width="106" height="22"/>
						</g>
					</g>
				</g>
				<g>
					<polygon style="fill:#AFC4C3;" points="125,0 875,0 875,29 212.2,29 					"/>
					<g>
						<g>
							<path style="fill:#FFFDF5;" d="M247.69,12.75L247.69,12.75h95.5l0,0c0,4.14-3.36,7.5-7.5,7.5h-80.5
								C251.04,20.25,247.69,16.89,247.69,12.75z"/>
							<path style="fill:#6F868F;" d="M243.04,16.75L243.04,16.75c0-4.42,3.58-8,8-8h88c4.42,0,8,3.58,8,8l0,0H243.04z"/>
						</g>
						<g>
							<path style="fill:#FFFDF5;" d="M479.7,12.75L479.7,12.75h95.5l0,0c0,4.14-3.36,7.5-7.5,7.5h-80.5
								C483.06,20.25,479.7,16.89,479.7,12.75z"/>
							<path style="fill:#6F868F;" d="M475.05,16.75L475.05,16.75c0-4.42,3.58-8,8-8h88c4.42,0,8,3.58,8,8l0,0H475.05z"/>
						</g>
						<g>
							<path style="fill:#FFFDF5;" d="M711.71,12.75L711.71,12.75h95.5l0,0c0,4.14-3.36,7.5-7.5,7.5h-80.5
								C715.07,20.25,711.71,16.89,711.71,12.75z"/>
							<path style="fill:#6F868F;" d="M707.07,16.75L707.07,16.75c0-4.42,3.58-8,8-8h88c4.42,0,8,3.58,8,8l0,0H707.07z"/>
						</g>
					</g>
				</g>
			</g>
			<g>
				<rect x="125" y="419" style="fill:#EBF6F7;" width="750" height="81"/>
				<g>
					<g>
						<path style="fill:#2F2F33;" d="M468.27,334.55c0.52,2.24,1.26,6.24,1.25,6.19"/>
						<g>
							<g>
								<g>
									<rect x="125" y="313.65" style="fill:#BA6552;" width="152.82" height="33.23"/>
									<rect x="125" y="310.47" style="fill:#638A91;" width="147.81" height="3.18"/>
								</g>
								<g>
									<g>
										<g>
											<rect x="125" y="349.48" style="fill:#BA6552;" width="166.46" height="30.02"/>
											<rect x="125" y="346.89" style="fill:#638A91;" width="159.19" height="2.59"/>
											<rect x="125" y="349.48" style="fill:#A85447;" width="111.92" height="1.35"/>
										</g>
										<rect x="125" y="375.2" style="fill:#8C4D46;" width="122.15" height="44.45"/>
									</g>
									<g>
										<g>
											<rect x="185.9" y="353.41" style="fill:#CF8167;" width="45.48" height="18.19"/>
											<rect x="202.05" y="355.56" style="fill:#754546;" width="13.19" height="2.43"/>
										</g>
										<g>
											<rect x="134.96" y="353.41" style="fill:#CF8167;" width="45.48" height="18.19"/>
											<rect x="151.11" y="355.56" style="fill:#754546;" width="13.19" height="2.43"/>
										</g>
									</g>
								</g>
							</g>
							<g>
								<g>
									<rect x="156.92" y="342.79" style="fill:#303B48;" width="45.48" height="4.09"/>
									<polygon style="fill:#303B48;" points="190.21,343.77 193.64,320.8 170.67,320.8 167.24,343.77 									"/>
								</g>
								<g>
									<polygon style="fill:#323D4A;" points="135.99,280.42 134.51,282.3 143.31,335.91 224.08,335.73 226.38,334.8 									"/>
									<polygon style="fill:#3D4954;" points="226.38,334.8 217.07,280.42 135.99,280.42 145.29,334.8 									"/>
									<polygon style="fill:#FFFEFA;" points="221.73,332 213.38,283.22 140.64,283.22 148.99,332 									"/>
								</g>
							</g>
						</g>
						<g>
							<g>
								<g>
									<g>
										<g>
											<path style="fill:#FAC7AA;" d="M337.43,261.51c-0.76,3.69-2.87,7.63-5.45,10.02c-5.95-2.5-11.02-6.4-14.79-11.47
												c1.01-0.47,2.78-1.2,3.62-2.19c0.33-1.54,0.44-3.04,0.44-4.52c-0.01-2.14-0.25-4.24-0.48-6.38
												c3.22,1.11,6.6,1.69,10.13,2.39c-0.28,3.53-0.15,5.95,0.35,8.71c0.08,0.44,0.16,0.88,0.26,1.34
												C333.31,260.52,335.38,261.19,337.43,261.51z"/>
											<path style="fill:#F09886;" d="M331.24,258.07c-1.65-0.04-3.26-0.38-4.77-0.99c-2-0.82-3.8-2.11-5.23-3.73
												c-0.01-2.14-0.25-4.24-0.48-6.38c3.22,1.11,6.6,1.69,10.13,2.39C330.61,252.89,330.74,255.31,331.24,258.07z"/>
										</g>
										<g>
											<path style="fill:#FAC7AA;" d="M364,272.04c1.07-2.91,2.18-5.9,4.24-8.22c0.24-0.27,0.5-0.53,0.83-0.66
												c0.33-0.13,0.75-0.1,0.99,0.17c0.33,0.37,0.16,0.94-0.02,1.39c-0.41,1.05-0.83,2.1-1.25,3.17
												c3.49-0.8,6.98-1.59,10.47-2.39c0.65-0.15,1.52-0.19,1.77,0.43c0.27,0.68-0.55,1.27-1.23,1.55
												c-1.94,0.79-3.89,1.59-5.83,2.38c2.7-0.32,5.41-0.63,8.11-0.95c0.45-0.05,1.03-0.03,1.18,0.4
												c0.14,0.4-0.24,0.78-0.59,1.02c-2.17,1.48-4.76,2.33-7.38,2.42c2.13,0.02,4.26,0.03,6.39,0.05
												c0.43,0,0.96,0.08,1.09,0.49c0.15,0.49-0.43,0.86-0.91,1.03c-2.21,0.75-4.57,1.05-6.91,1.09
												c1.86,0.11,3.72,0.22,5.58,0.33c0.41,0.02,0.92,0.12,1.04,0.52c0.15,0.52-0.51,0.87-1.04,0.99
												c-5.17,1.2-10.56,1.43-15.77,0.41c-0.01,0.02-0.01,0.04-0.02,0.06"/>
											<path style="fill:#425469;" d="M353.77,278.13c1.69,1.51,2.92,3.02,4.61,4.53c2.1-4.01,4.16-7.03,5.8-11.27
												c0.68,2.56,3.2,6.06,5.37,7.92c-2.04,7.13-9.34,17.55-10.75,17.83c-2.28,0.46-7.1-4.92-11.4-7.18
												C349.43,286.87,351.68,282.64,353.77,278.13z"/>
											<path style="fill:#5BA3B5;" d="M348.16,292.38c1.17-0.7,7.31-7.23,9.75-11.48c-5.23-7.03-11.98-15.26-16.03-17.82
												c-0.37,5.18-2.88,15.85-2.46,20.87C339.52,285.11,346.54,291.94,348.16,292.38z"/>
										</g>
										<g>
											<path style="fill:#F09886;" d="M339.194,240.674c2.252-0.97,4.678-0.363,5.419,1.356c0.741,1.72-0.484,3.9-2.736,4.87
												c-2.252,0.97-4.678,0.363-5.419-1.356C335.717,243.825,336.942,241.645,339.194,240.674z"/>
											<g>
												<path style="fill:#FAC7AA;" d="M333.2,254.24c-7.11,1.64-16.1-4.45-18.25-13.1c-2.14-8.65,1.9-16.99,9-18.64
													c2.12-0.49,4.26-0.33,6.3,0.37c10.41,3.59,10.62,11.21,10.68,11.46C343.04,242.98,340.31,252.59,333.2,254.24z"/>
												<path style="fill:#F09886;" d="M319.34,242.89c2.06-3.15,3.5-6.72,4.27-10.22c2.94,0.58,5.98,0.07,8.97-0.06
													c2.99-0.13,6.23,0.21,8.52,2.16c-1.33-2.5-3.49-4.5-5.94-5.92c-2.45-1.42-5.19-2.28-7.97-2.84
													c-1.44-0.29-2.92-0.51-4.38-0.37s-2.93,0.67-3.98,1.7c-1.44,1.41-1.91,3.54-2.11,5.55
													C316.38,236.48,316.68,240.14,319.34,242.89z"/>
											</g>
											<path style="fill:#542D2E;" d="M318.65,226.58c-0.51-3.05-3.83-5.16-6.91-4.83c-3.08,0.34-5.69,2.71-6.88,5.57
												c-1.19,2.86-1.13,6.11-0.44,9.13c0.37,1.64,0.93,3.25,1.1,4.93c0.17,1.68-0.08,3.48-1.15,4.79
												c-0.51,0.62-1.24,1.35-0.91,2.08c0.22,0.49,0.86,0.67,1.38,0.54c0.52-0.13,0.95-0.49,1.36-0.83
												c0.1,1.62-2.78,3.84-2.18,4.79c0.68,1.09,6.47,0.78,9.78-4.02C317.76,243,320.15,235.65,318.65,226.58z"/>
											<g>
												<path style="fill:none;stroke:#CF4F46;stroke-linecap:round;stroke-miterlimit:10;" d="M335.22,242.92
													c0.26,1.09,0.23,2.21-0.09,3.29"/>
												<path style="fill:none;stroke:#46290C;stroke-linecap:round;stroke-miterlimit:10;" d="M336.94,237.08
													c1.13-0.76,2.53-0.6,3.4,0.4"/>
												<path style="fill:none;stroke:#46290C;stroke-linecap:round;stroke-miterlimit:10;" d="M326.57,238.32
													c1.02-1.36,2.66-1.81,3.94-1.07"/>
												<ellipse style="fill:#414143;" cx="329.71" cy="241.79" rx="0.85" ry="1.13"/>
												<ellipse style="fill:#414143;" cx="338.64" cy="241.79" rx="0.85" ry="1.13"/>
											</g>
											<g>
												<g>
													<path style="fill:#693934;" d="M342.8,233.53c-0.05,0.22-0.11,0.44-0.18,0.65c-0.28,0.96-0.68,1.85-1.17,2.6
														c-0.34-1.24-3.14-4.06-5.41-4.85c-6.79-2.38-9.75,1.16-13.57-1.36c-0.2,6.56-0.71,10.57-4.29,16.12
														c-3.47-3.69-5.5-6.9-6.02-10.43c-0.52-3.54-0.4-6.12,0.86-9.49c1.95-5.17,5.65-4.35,5.8-4.57
														c0.15-0.36,0.36-0.71,0.62-1.03c3.05-3.87,12.74-4.38,16.54-2.6C341.3,221.09,343.96,228.85,342.8,233.53z"/>
												</g>
												<path style="fill:#804E44;" d="M342.8,233.53c-0.05,0.22-0.11,0.44-0.18,0.65c-0.31-1.99-0.75-3.96-1.47-5.83
													c-1.15-2.97-3.07-5.72-5.82-7.34c-2.61-1.53-5.77-1.92-8.77-1.6c-2.44,0.25-4.8,0.96-7.12,1.77
													c3.05-3.87,12.74-4.38,16.54-2.6C341.3,221.09,343.96,228.85,342.8,233.53z"/>
											</g>
											<g>
												<g>
													<path style="fill:none;stroke:#D7F5F1;stroke-miterlimit:10;" d="M324.54,245.06c-2.87-1.39-7.42-2.43-9.65-1.44"/>
													<path style="fill:none;stroke:#D7F5F1;stroke-miterlimit:10;" d="M324.32,252.53c-2.17-0.92-4.14-2.3-5.77-4.01"/>
												</g>
												<path style="fill:#FAC7AA;" d="M312.713,244.85c0.576-1.595,2.731-2.278,4.814-1.525
													c2.083,0.752,3.304,2.655,2.728,4.25c-0.576,1.595-2.731,2.277-4.814,1.525
													C313.358,248.348,312.137,246.445,312.713,244.85z"/>
												<g>
													<path style="fill:#7ABFB3;" d="M337.33,253.65c2.79-2.75,4.45-6.01,4.2-9.88c-6.05,0.11-11.98,0.42-17.85,0.76
														c-0.45,2.63-0.4,5.35,0.06,8.22c2.45,2,5.67,3.08,8.86,3.08C334.29,255.6,336.13,254.84,337.33,253.65z"/>
													<g>
														<path style="fill:#5EA6A1;" d="M340.65,246.06c-5.22,0.05-10.43,0.25-15.46,0.68
															C330.34,247.61,335.67,247.43,340.65,246.06z"/>
														<path style="fill:#5EA6A1;" d="M339.15,250.2c-4.28,1.14-8.81,1.32-13.07,0.51c2.2,0.6,4.42,1.2,6.69,1.27
															C335.05,252.06,337.42,251.56,339.15,250.2z"/>
													</g>
												</g>
											</g>
										</g>
										<g>
											<g>
												<path style="fill:#6EBFCC;" d="M345.88,307.6c-10.72,1.87-24.21,1.58-35.14-0.17c0.66-5.34,1.32-10.67,1.98-16.01
													c-1.2-5.4-2.09-10.78-2.66-16.16c-0.38-3.57-0.62-7.13-0.72-10.71c3.2-2.67,6.39-4.44,9.79-5.54
													c3.49,3.67,7.3,6.73,11.58,9.2c1.59-2.53,2.8-5.29,3.47-7.81c2.37,0.44,6.74,1.37,8.86,3.49
													c0.31,9.56-0.13,18.9-0.63,27.74c0.25,2.2,0.74,4.29,1.26,6.36C344.48,301.16,345.4,304.27,345.88,307.6z"/>
												<path style="fill:#5BA3B5;" d="M345.88,307.6c-10.72,1.87-24.21,1.58-35.14-0.17c0.66-5.34,1.32-10.67,1.98-16.01
													c-1.2-5.4-2.09-10.78-2.66-16.16c1.62-1.48,3.42-2.93,5.4-4.35c1.08,7.58,2.42,15.68,7.71,21.21
													c5.12,5.36,13.1,7.06,20.49,5.87C344.48,301.16,345.4,304.27,345.88,307.6z"/>
											</g>
											<g>
												<path style="fill:#84D5DB;" d="M330.8,268.11c-0.04-1.69-0.08-3.38-0.18-5.23c0.89-1.53,1.53-3.22,1.87-4.96
													c1.28,0.68,2.42,1.64,3.41,2.78C334.32,263.14,332.74,265.59,330.8,268.11z"/>
												<path style="fill:#84D5DB;" d="M317.65,259.62c0.35-1.19,1.03-2.29,1.94-3.13c2.91,2.34,6.6,4.5,9.6,6.59
													c0.41,1.91,0.74,3.39,1.62,5.17C325.42,267.13,320.48,263.97,317.65,259.62z"/>
											</g>
										</g>
									</g>
									<g>
										<path style="fill:#425469;" d="M309.03,276.12c-2.62,8.78-4.17,17.87-4.42,26.94c3.06,0.36,6.13,0.72,9.22,0.95
											c0.33-7.19,1.7-14.33,4.06-21.13"/>
										<path style="fill:#6EBFCC;" d="M321.03,272.47c-0.67,6.64-1.34,13.28-2.02,19.92c-5.42-1.07-10.61-2.57-15.58-4.59
											c0.91-7.95,2.67-16.1,5.91-23.32C312.83,265.25,316.37,267.3,321.03,272.47z"/>
									</g>
								</g>
								<g>
									<g>
										<g>
											<g>
												<path style="fill:#A0AD74;" d="M276.61,288.64c-1.14-5.36-0.58-11.07,1.6-16.1c2.18-5.03,5.95-9.35,10.64-12.19
													c1.95,5.1,2.25,10.82,0.83,16.09C288.26,281.72,285.15,286.52,276.61,288.64z"/>
												<g>
													<path style="fill:#738554;" d="M279.9,285.01c1.47-7.15,3.88-14.1,7.16-20.61
														C284.75,271.29,282.45,278.19,279.9,285.01z"/>
													<path style="fill:#738554;" d="M279.5,286.57c1.41-6.27,2.83-12.54,4.24-18.81
														C281.14,273.35,279.73,279.49,279.5,286.57z"/>
													<path style="fill:#738554;" d="M279.62,286.2c2.38-6.63,5.17-13.11,8.36-19.39
														C286.51,272.58,284.19,278.14,279.62,286.2z"/>
												</g>
											</g>
											<g>
												<path style="fill:#A0AD74;" d="M278.52,291.96c1.84-6.06,0.41-12.81-2.93-18.18s-8.45-9.47-14-12.5
													c-2,5.78-1.84,12.28,0.46,17.95C264.33,284.9,268.72,289.69,278.52,291.96z"/>
												<g>
													<path style="fill:#738554;" d="M273.41,283.59c-1.65-6.95-5.05-13.48-9.81-18.81
														C266.87,269.66,269.42,274.96,273.41,283.59z"/>
													<path style="fill:#738554;" d="M272.38,283.51c-2.15-5.58-5.25-10.8-9.13-15.35
														C265.23,273.61,268.83,278.3,272.38,283.51z"/>
													<path style="fill:#738554;" d="M273.83,284.25c-2.64-5.06-4.43-10.55-5.28-16.19
														C270.9,273.05,272.39,278.46,273.83,284.25z"/>
												</g>
											</g>
										</g>
										<g>
											<path style="fill:#C3C797;" d="M266.7,288.9c-7.53-3.88-13.91-10.32-18.01-18.18c4.59-2.41,10.27-1.88,14.91,0.82
												c4.64,2.7,8.19,7.52,10.07,13.02c-4.13-9.49-2.81-21.49,3.26-29.66c5.46,8.94,6.37,20.94,2.49,31.27
												c1.13-5.9,4.19-11.35,8.51-15.14s9.88-5.9,15.45-5.86c-2.93,11.12-10.03,20.89-19.33,26.57"/>
											<g>
												<path style="fill:#94A168;" d="M276.76,289.01c-1.44-9.03-1.44-18.29,0.01-27.32c-0.38,9.49-0.28,19,0.2,28.48
													C276.97,290.19,276.95,290.21,276.76,289.01z"/>
												<path style="fill:#94A168;" d="M277.22,292.58c-0.86-8.36-0.34-16.85,1.56-25.04
													C278.27,275.9,277.76,284.27,277.22,292.58z"/>
												<path style="fill:#94A168;" d="M277.33,294.24c-0.22-8.18-1.28-16.34-3.28-24.3
													C274.08,277.91,275.27,285.88,277.33,294.24z"/>
											</g>
											<g>
												<path style="fill:#94A168;" d="M283.18,287.66c3.56-8.25,9.46-15.48,16.89-20.53
													C293.63,274.14,287.59,281.52,283.18,287.66z"/>
												<path style="fill:#94A168;" d="M280.83,291.84c3.29-7.17,8.82-13.28,15.57-17.32
													C291.36,279.97,286.32,285.42,280.83,291.84z"/>
												<path style="fill:#94A168;" d="M280.49,294.13c3.33-7.81,7.05-15.47,11.13-22.93
													C286.36,277.96,282.65,285.92,280.49,294.13z"/>
											</g>
											<g>
												<path style="fill:#94A168;" d="M254.14,272.69c8.5,1.85,15.65,8.91,17.71,17.37
													C268.26,282.34,261.83,275.98,254.14,272.69z"/>
												<path style="fill:#94A168;" d="M273.42,291.72c-3.45-6.04-8.77-10.99-14.92-14.03
													C263.91,281.9,268.93,286.63,273.42,291.72z"/>
												<path style="fill:#94A168;" d="M273.57,294.13c-2.25-6.81-5.49-13.28-9.43-19.32
													C269.07,279.76,272.18,286.49,273.57,294.13z"/>
											</g>
										</g>
									</g>
									<g>
										<polygon style="fill:#CCC1BA;" points="298.25,283.1 292.23,298.23 291.55,299.93 262.2,299.93 255.5,283.1 										"/>
										<path style="fill:#E8DFD5;" d="M298.25,283.1l-6.02,15.13h-22.89c-2.38,0-4.53-1.45-5.41-3.67l-4.57-11.46H298.25z"/>
									</g>
								</g>
								<g>
									<polygon style="fill:#79828C;" points="400.44,299.93 404.12,286.28 373.26,286.28 369.59,299.93 									"/>
									<polygon style="fill:#E8EBED;" points="376.93,299.93 373.26,286.28 404.12,286.28 407.79,299.93 									"/>
								</g>
							</g>
							<g>
								<g>
									<g>
										<rect x="243.63" y="304.13" style="fill:#E8AC7D;" width="18.19" height="117.69"/>
										<polygon style="fill:#C7795F;" points="261.82,304.13 243.63,308.46 243.63,304.13 										"/>
									</g>
									<g>
										<rect x="260" y="304.13" style="fill:#F0D192;" width="166.46" height="117.69"/>
										<g>
											<rect x="260" y="304.13" style="fill:#E8AC7D;" width="166.46" height="3.74"/>
											<g>
												<rect x="260" y="299.93" style="fill:#A5CFCC;" width="170.1" height="4.2"/>
												<rect x="241.81" y="299.93" style="fill:#779EA3;" width="18.19" height="4.2"/>
											</g>
										</g>
										<g>
											<rect x="258.63" y="318.95" style="fill:#E8AC7D;" width="167.83" height="4.67"/>
											<g>
												<rect x="260" y="314.28" style="fill:#A5CFCC;" width="170.1" height="4.67"/>
												<rect x="255.45" y="314.28" style="fill:#779EA3;" width="4.55" height="4.67"/>
											</g>
										</g>
									</g>
									<g>
										<g>
											<rect x="183.18" y="314.28" style="fill:#A5CFCC;" width="73.14" height="4.67"/>
											<rect x="175.36" y="314.28" style="fill:#779EA3;" width="20.01" height="4.67"/>
										</g>
										<g>
											<rect x="177.18" y="318.94" style="fill:#E8AC7D;" width="20.01" height="102.87"/>
											<polygon style="fill:#C7795F;" points="197.19,318.94 197.19,318.95 177.18,326.95 177.18,318.94 											"/>
										</g>
										<g>
											<rect x="197.19" y="318.95" style="fill:#F0D192;" width="59.13" height="102.87"/>
											<rect x="197.19" y="318.95" style="fill:#E8AC7D;" width="59.13" height="4.67"/>
										</g>
									</g>
								</g>
								<g>
									<g>
										<rect x="351.87" y="343.62" style="fill:#E8AC7D;" width="8.77" height="48.43"/>
										<rect x="331.949" y="363.472" style="fill:#E8AC7D;" width="48.62" height="8.73"/>
									</g>
									<g>
										<g>
											<rect x="354.6" y="341.8" style="fill:#A5CFCC;" width="8.77" height="48.43"/>
											<rect x="334.679" y="361.654" style="fill:#A5CFCC;" width="48.62" height="8.73"/>
										</g>
										<rect x="336.68" y="361.51" style="fill:#BFE3DE;" width="46.62" height="8.87"/>
										<rect x="356.25" y="341.84" style="fill:#BFE3DE;" width="7.11" height="48.39"/>
									</g>
								</g>
							</g>
						</g>
						<g>
							<g>
								<path style="fill:#2F2F33;" d="M431.81,410.23c-1.52,2.25-3.48,4.05-5.44,4.87c-1.39,0.54-2.88,0.51-4.34,0.67
									c-1.46,0.15-2.98,0.53-4.07,1.71c-1.09,1.18-1.57,3.36-0.67,5.14c6.1,2.3,12.77,2.28,18.87-0.07
									c0.02,0.17,0.04,0.34,0.25,0.5c2.3-0.03,4.61-0.34,6.97-0.97c-0.28-3.59-0.84-7.14-1.74-10.9
									C438.95,411.22,436.28,410.92,431.81,410.23z"/>
								<path style="fill:#2F2F33;" d="M465.33,412.18c-1.52,2.25-3.48,4.05-5.44,4.87c-1.39,0.54-2.88,0.51-4.34,0.67
									c-1.46,0.15-2.98,0.53-4.07,1.71c-1.1,1.18-1.57,3.36-0.67,5.14c6.1,2.3,12.77,2.28,18.87-0.07
									c0.02,0.17,0.04,0.34,0.25,0.5c2.3-0.03,4.61-0.34,6.97-0.97c-0.28-3.59-0.84-8.96-1.74-12.72
									C472.47,411.35,469.8,412.87,465.33,412.18z"/>
								<g>
									<path style="fill:#414143;" d="M475.95,411.31c-3.4,1.79-9.57,2.05-12.35,1.38c-3.08-28.99-2.07-31.23-8.62-71.8
										c-0.01-0.05-0.02-0.1-0.03-0.15c-3.13,17.32-5.05,26.85-8.1,43c-1.54,8.16-1.55,14.82-3.98,28.21
										c-3.4,1.26-10.21-0.66-12.79-1.64c4.59-40.09,5.06-59.86,8.61-86.85c0.7-5.32,1.47-10.73,2.37-16.36
										c6.01-1.58,15.19-2.97,26.52-5.93c2.47-0.65,5.02-1.36,7.68-2.17c0,2.26,0.01,4.49,0.02,6.69
										c0.01,3.11,0.03,6.16,0.05,9.13C475.64,349.85,477.9,372.74,475.95,411.31z"/>
									<path style="fill:#2F2F33;" d="M475.33,314.8c-10.63,7.14-23.93,10.29-36.63,8.65c0.7-5.32,1.47-10.73,2.37-16.36
										c6.01-1.58,15.19-2.97,26.52-5.93c2.54,1.16,5.1,2.65,7.7,4.51C475.28,308.78,475.3,311.83,475.33,314.8z"/>
								</g>
							</g>
							<g>
								<path style="fill:#F3B384;" d="M456.06,254.65c-3.37,4.66-7.2,8.99-11.39,12.92c-0.45,0.41-0.96,0.85-1.56,0.79
									c-0.69-0.07-1.13-0.75-1.46-1.36c-1.46-2.62-2.91-5.24-4.38-7.86c1.59-0.84,3.07-2.53,3.6-4.5c0-0.01,0.01-0.03,0.01-0.04
									c0.5-1.96,0.06-4.15-1.17-5.76c3.73-2.71,7.55-4.01,11.44-5.02c0.03,1.73,0.25,3.46,0.68,5.16
									c0.35,1.47,0.86,2.91,1.49,4.29C453.75,253.5,454.83,254.37,456.06,254.65z"/>
								<g>
									<path style="fill:#EDA277;" d="M420.44,275.07c2.7,3.24,5.81,8.19,8.96,10.4c-7.31,6.42-9.46,11.83-14.87,12.6
										c-5.18,0.74-14.35-17.14-17.03-28.73c2.32-0.56,3.95-2.5,7.3-3.42c2.08,6.83,7.45,14.75,8.54,14.94
										C414.2,281.02,415.85,279.66,420.44,275.07z"/>
									<g>
										<path style="fill:#816E99;" d="M431.36,262.12c-4.7,4.58-9.39,9.17-13.96,13.91c2.18,6.07,5.78,11.62,10.28,16.19
											c3.62-3.8,7.72-7.16,12.14-9.83C439.9,276.52,438.76,270.62,431.36,262.12z"/>
										<path style="fill:#B19FBF;" d="M416.16,277.29c3.19,5.38,6.39,10.76,9.82,16.22c1.67-1.08,3.34-2.16,4.91-3.52
											c-2.98-6.33-6.16-12.57-9.58-18.55C419.63,273.27,417.95,275.13,416.16,277.29z"/>
									</g>
									<g>
										<path style="fill:#EDA277;" d="M404.56,267.53c1.25-6.42,0.66-12.05-2.17-17.65c-0.32-0.64-0.97-1.36-1.61-1.04
											c-0.52,0.27-0.5,1-0.41,1.57c0.41,2.6,0.81,4.29,1,7c-0.59-2.6-2.35-4.91-4.71-6.15c-0.38-0.2-0.8-0.38-1.22-0.34
											c-0.43,0.04-0.85,0.38-0.85,0.81c0,0.23,0.12,0.44,0.23,0.64c1.1,1.93,2.2,3.87,3.53,6.12c-1.06-1.26-2.14-2.49-3.24-3.71
											c-0.48-0.53-1.1-1.11-1.81-1c-0.83,0.12-1.21,1.37-0.69,2.13c-0.32-0.33-0.93-0.24-1.23,0.11
											c-0.31,0.35-0.35,0.86-0.23,1.31c0.12,0.45,0.38,0.84,0.64,1.22c0.94,1.41,1.89,2.81,2.94,4.18
											c-0.51,3.21,1.08,6.65,3.85,8.36"/>
										<path style="fill:none;stroke:#C4604F;stroke-linecap:round;stroke-miterlimit:10;" d="M403.62,262.67
											c-0.83-1.57-1.66-3.15-2.72-4.57c-0.27-0.36-0.58-0.73-0.99-0.92c-0.42-0.19-0.97-0.13-1.24,0.24
											c-0.3,0.42-0.11,1,0.09,1.48c0.46,1.06,0.96,2.1,1.5,3.12c-0.93,1.44-1.14,3.32-0.55,4.93"/>
									</g>
								</g>
								<path style="fill:#E88466;" d="M451.83,248.98c-2.64,2.29-5.74,4.08-9.06,5.18c-0.61,0.2-1.26,0.37-1.89,0.45
									c0.5-1.96,0.06-4.15-1.17-5.76c3.73-2.71,7.55-4.01,11.44-5.02C451.17,245.55,451.4,247.28,451.83,248.98z"/>
								<g>
									<path style="fill:#E88466;" d="M425.839,238.834c0.572-1.725,2.974-2.479,5.364-1.686c2.39,0.793,3.864,2.835,3.292,4.559
										c-0.572,1.725-2.974,2.479-5.364,1.686C426.74,242.599,425.266,240.558,425.839,238.834z"/>
									<path style="fill:#F3B384;" d="M437.76,251.08c6.96,2.95,16.68-4.63,18.9-13.62c2.21-8.99-1.96-17.65-9.33-19.37
										c-2.19-0.51-8.28-0.12-10.39,0.61c-8.03,2.78-6.97,12.58-6.97,12.58S425.51,245.89,437.76,251.08z"/>
									<path style="fill:none;stroke:#CF4F46;stroke-linecap:round;stroke-miterlimit:10;" d="M435.89,238.69
										c-0.27,1.05-0.23,2.12,0.09,3.16"/>
									<path style="fill:none;stroke:#414143;stroke-linecap:round;stroke-miterlimit:10;" d="M434.6,231.63
										c-1.25-0.92-3.09-1.02-4.44-0.23"/>
									<path style="fill:none;stroke:#414143;stroke-linecap:round;stroke-miterlimit:10;" d="M446.84,232.77
										c-1.24-1.37-3.37-1.89-5.13-1.27"/>
									<ellipse style="fill:#414143;" cx="441.69" cy="238" rx="0.88" ry="1.09"/>
									<path style="fill:#E88466;" d="M453.64,238.47c-3.53-3.4-5.54-8.32-5.29-13.12c-5.79,1.2-11.85,1.07-17.59-0.36
										c0.06-1.53,1.15-2.87,2.48-3.64c1.33-0.77,2.86-1.07,4.37-1.35c3-0.55,6.03-1.06,9.08-0.94c2.92,0.11,5.98,0.9,7.98,3.03
										c1.43,1.52,2.17,3.59,2.41,5.67c0.24,2.08,0.04,4.17-0.22,6.25"/>
									<ellipse style="fill:#414143;" cx="432.14" cy="238" rx="0.88" ry="1.09"/>
									<g>
										<path style="fill:#414143;" d="M454.86,242.89c-3.7-5.76-6.59-12.57-5.66-19.17c-5.36,1.28-11.85,1.19-17.41,0.35
											c-1.34,4.48-1.78,6.99-2.59,12.85c-0.86-5.16-0.21-10.31,0.84-13.66c-0.62-0.5-1.05-1.16-1.28-1.88
											c-0.46-1.31-0.35-2.84,0.32-4.08c1.03-1.93,3.1-3.18,5.28-3.73c2.16-0.55,4.45-0.45,6.69-0.28
											c2.89,0.23,5.77,0.61,8.61,1.12c0.92,0.17,1.86,0.36,2.65,0.83c0.15,0.09,0.3,0.19,0.44,0.32
											c0.59,0.47,1.01,1.15,1.01,1.9c1.66,0.05,3.18,1.05,4.15,2.35c0.96,1.31,1.45,2.9,1.76,4.48
											C460.84,230.3,459.7,236.74,454.86,242.89z"/>
										<path style="fill:#58595C;" d="M452.73,215.54c-1.84-0.18-3.67-0.36-5.51-0.55c-2.9-0.29-5.84-0.57-8.74-0.2
											c-2.9,0.37-5.79,1.46-7.82,3.56c-0.83,0.86-1.48,1.9-1.9,3.02c-0.46-1.31-0.35-2.84,0.32-4.08
											c1.03-1.93,3.1-3.18,5.28-3.73c2.16-0.55,4.45-0.45,6.69-0.28c2.89,0.23,5.77,0.61,8.61,1.12
											c0.92,0.17,1.86,0.36,2.65,0.83C452.45,215.31,452.6,215.41,452.73,215.54z"/>
									</g>
									<g>
										<g>
											<path style="fill:none;stroke:#D7F5F1;stroke-miterlimit:10;" d="M446.13,242.34c1.79-0.98,3.58-2.07,5.58-2.46
												c2.1-0.41,3.93-0.13,5.76,0.77"/>
											<path style="fill:none;stroke:#D7F5F1;stroke-miterlimit:10;" d="M446.93,249.49c2.78-1.25,5.36-3.38,7.63-5.42"/>
										</g>
										<path style="fill:#F3B384;" d="M454.283,239.747c2.198-0.611,4.335,0.175,4.775,1.755c0.439,1.58-0.986,3.357-3.184,3.968
											c-2.198,0.611-4.336-0.175-4.775-1.755C450.66,242.134,452.085,240.358,454.283,239.747z"/>
										<g>
											<path style="fill:#7ABFB3;" d="M447.4,249.95c1.37-2.67,1.14-6.2,0.75-9.04c-6.38-1.28-15.96-1.21-18.8-0.64
												c0.39,2.86,1.44,5.63,3.18,8.1c1.23,1.5,2.81,2.71,4.51,3.41C440.15,252.24,444.69,251.07,447.4,249.95z"/>
											<path style="fill:#5EA6A1;" d="M430.66,242.29c5.07,0.19,10.14,0.38,15.21,0.56
												C440.96,244.09,435.67,243.81,430.66,242.29z"/>
											<path style="fill:#5EA6A1;" d="M432.02,245.67c4.47,0.94,9.11,1.09,13.76,0.33c-2.59,1.14-4.65,1.46-7.02,1.55
												S433.95,246.84,432.02,245.67z"/>
										</g>
									</g>
								</g>
								<g>
									<path style="fill:#816E99;" d="M467.35,260.76c-4.95-5.47-7.11-4.73-13.18-7.06c-3.63,4.47-6.95,7.18-10.61,10.67
										c-2.25-2.3-2.67-5.18-3.43-8.34c-3.61,1.39-6.95,3.55-11.18,8.51c2.88,14.87,7.42,21.5,10.75,38.69
										c0.4,2.53-0.66,7.88-1.11,10.86c10.62,6.03,22.37,4.02,38.54-3.82C473.33,287.16,472.74,271.27,467.35,260.76z"/>
									<g>
										<path style="fill:#B19FBF;" d="M443.56,264.32c3.35-3.84,6.89-7.23,9.84-11.62c1.05-0.88,1.89-1.1,5.41,2.42
											c-1.25,3.32-2.69,7.89-4.72,10.8C450.62,263.92,446.96,263.26,443.56,264.32z"/>
										<path style="fill:#B19FBF;" d="M443.56,264.32c-1.69-2.69-2.59-6.53-2.73-9.72c-1.69-0.96-3.87,1.18-4.58,2.76
											c-1.1,2.94-3.11,7.05-2.9,10.17C436.72,265.2,440.56,264.15,443.56,264.32z"/>
									</g>
								</g>
								<g>
									<g>
										<path style="fill:#F3B384;" d="M423.19,295.23c-1.51-2.63-3.23-5.21-5.59-7.13c-0.67-0.55-1.47-1.06-2.33-0.99
											c-0.86,0.07-1.66,1.02-1.55,1.81c-0.52-0.62-1.49-0.82-2.21-0.46c-0.73,0.36-1.16,1.23-0.92,2.43
											c-0.61-0.38-1.41-0.62-2.08-0.4c-0.77,0.25-0.79,1.45-0.69,2.34c-0.47-0.44-1.28-0.3-1.75,0.13
											c-0.48,0.43-0.7,1.06-0.92,1.67c-0.61,1.77-1.23,3.53-1.84,5.3c-0.13,0.38-0.25,0.83,0.01,1.14
											c0.38,0.45,1.11,0.1,1.55-0.29c1.07-0.97,1.96-2.14,2.99-3.57c3.43,3.85,9.11,5.58,14.11,4.2
											C422.13,299.21,422.63,297.03,423.19,295.23z"/>
										<path style="fill:#F3B384;" d="M467.83,279.2c-0.41,0.78-0.85,1.6-1.28,2.44c-3.22,6.09-7.19,13.44-11.01,18.57
											c-2.27,3.07-4.5,5.36-6.49,6.13c-6.64,2.59-21.79-2.15-31.1-5.59c0.72-2.39,1.44-4.78,2.49-7.56
											c6.99,2.47,14.55,3.3,22.2,2.68c1.1-1.86,2.17-3.75,3.22-5.66c2.8-5.08,5.43-10.33,8-15.92c0.35-0.77,0.71-1.56,1.06-2.35
											C459.13,273.51,463.13,275.67,467.83,279.2z"/>
										<path style="fill:#E88466;" d="M466.55,281.64c-3.22,6.09-7.19,13.44-11.01,18.57c-4.28-2.05-7.8-5.67-9.68-10
											c2.8-5.08,5.43-10.33,8-15.92c1.17,0.39,2.32,0.93,3.4,1.48C460.53,277.46,463.64,279.42,466.55,281.64z"/>
									</g>
									<g>
										<path style="fill:#957EAB;" d="M459.7,260.41c-5.89,4.9-9.3,17.99-13.12,24.62c3.85,6.84,9.59,8.67,16.87,9.47
											c3.11-8.33,9.36-20.19,6.05-29.36C467.85,260.55,463.67,257.1,459.7,260.41z"/>
										<path style="fill:#B19FBF;" d="M445.63,285.78c1.2,3.49,3.7,6.52,6.9,8.36c3.2,1.84,7.07,2.48,10.69,1.76
											c0.96-1.66,1.92-3.33,2.96-5.04c-6.8-1.07-13.29-4.02-18.44-8.6C447.74,282.24,447.74,282.21,445.63,285.78z"/>
									</g>
								</g>
							</g>
						</g>
					</g>
					<g>
						<g>
							<path style="fill:#88B8B8;" d="M876.6,339.69v37.68c0,20.99-17,38-37.98,38H711.95c-20.97,0-37.98-17.01-37.98-38v-37.68
								c0-10.46,4.23-19.95,11.08-26.82c6.88-6.91,16.39-11.18,26.9-11.18h126.68c12.19,0,23.04,5.75,29.98,14.67
								C873.62,322.81,876.6,330.9,876.6,339.69z"/>
							<path style="fill:#A5CFCC;" d="M682.56,421.15v-29.83h185.46v28.46c0,2.89-2.34,5.23-5.23,5.23H686.41
								C684.28,425,682.56,423.28,682.56,421.15z"/>
							<path style="fill:#95C7C5;" d="M650.79,418.91v-70.28c0-5.04,4.09-9.13,9.13-9.13h1.39c11.74,0,21.25,9.51,21.25,21.25v60.98
								c0,1.8-1.46,3.26-3.26,3.26h-22.42C653.52,425,650.79,422.27,650.79,418.91z"/>
							<path style="fill:#95C7C5;" d="M899.79,418.91v-70.28c0-5.04-4.09-9.13-9.13-9.13h-1.39c-11.74,0-21.25,9.51-21.25,21.25
								v60.98c0,1.8,1.46,3.26,3.26,3.26h22.41C897.06,425,899.79,422.27,899.79,418.91z"/>
							<path style="fill:#B2D9D4;" d="M682.56,391.31v-6.58c0-6.27,4.53-11.64,10.72-12.66c21.62-3.58,44.96-3.7,70.23,0.07
								c6.76,1.01,11.78,6.8,11.78,13.64v5.54h-92.73V391.31z"/>
							<path style="fill:#B2D9D4;" d="M775.29,391.31v-6.58c0-6.27,4.53-11.64,10.72-12.66c21.62-3.58,44.96-3.7,70.23,0.07
								c6.76,1.01,11.78,6.8,11.78,13.64v5.54h-92.73V391.31z"/>
							<path style="fill:#B2D9D4;" d="M868.61,316.36c-3.16-1.58-6.52-2.8-9.93-3.69c-9.69-2.53-19.82-2.65-29.84-2.75
								c-36.23-0.35-72.47-0.71-108.71-1.07c-10.43-0.1-21.04-0.18-31.07,2.67c-1.35,0.39-2.7,0.83-4.02,1.34
								c6.88-6.91,16.39-11.18,26.9-11.18h126.68C850.82,301.69,861.66,307.44,868.61,316.36z"/>
						</g>
						<g>
							<path style="fill:#E8BD7D;" d="M725.83,309.87c3.04,1.73,4.14,13.11,4.4,19.66c0.15,3.9-0.08,7.82,0.3,11.7
								c0.77,7.84,4,15.21,7.19,22.41c-4.09-0.3-8.25,0.29-12.09,1.71c-3.84-8.82-7.71-17.77-9.24-27.27
								C714.86,328.58,715.52,317.81,725.83,309.87z"/>
							<g>
								<g>
									<g>
										<path style="fill:#322933;" d="M762.48,431.43c-3.82,2.32-8.79,2.79-13.27,1.48c-2.31-0.68-4.82-1.8-6.98-0.74
											c-2.82-0.12-5.25-0.51-7.61-1.13c0.13-0.92,0.28-1.83,0.45-2.73c0.77-4.16,1.95-8.1,3.4-11.93
											c3.27,0.75,7.03,1.73,10.4,3.49c0.13,0.07,0.26,0.14,0.33,0.26c0.07,0.11,0.08,0.25,0.1,0.39
											c0.15,1.19,1.13,2.22,2.3,2.43c2.34,0.57,5.38,0.04,7.87,1.37c1.74,0.93,2.91,2.78,3.16,4.74
											C762.74,429.85,762.7,430.66,762.48,431.43z"/>
										<path style="fill:#6B616B;" d="M762.48,431.43c-3.82,2.32-8.79,2.79-13.27,1.48c-2.31-0.68-4.82-1.8-6.98-0.74
											c-2.82-0.12-5.25-0.51-7.61-1.13c0.13-0.92,0.28-1.83,0.45-2.73c1.89,1.25,4.25,1.78,6.48,1.41
											c0.83-0.14,1.63-0.39,2.46-0.5c2.96-0.39,5.82,1.03,8.75,1.55c3.36,0.6,6.9-0.03,9.87-1.71
											C762.74,429.85,762.7,430.66,762.48,431.43z"/>
									</g>
									<path style="fill:#3A3A3D;" d="M719.97,352.82c9.56,1.46,19,3.67,28.22,6.6c2.25,0.72,4.61,1.56,6.12,3.37
										c2.13,2.57,1.96,6.28,1.65,9.6c-1.59,16.87-2.5,33.42-5.83,49.64c-4.57,1.84-10.27,1.42-14.02,0
										c-1.1-11.19,3.98-22.78-0.27-33.19c-4.01-9.82-14.19-15.61-24.18-19.17c-1.16-0.41-2.4-0.86-3.1-1.86
										c-1.32-1.87-0.07-4.49,1.5-6.15C711.63,359.99,713.64,358.46,719.97,352.82z"/>
								</g>
								<g>
									<g>
										<path style="fill:#322933;" d="M743.48,434.05c-3.82,2.32-8.79,2.79-13.27,1.48c-2.31-0.68-4.82-1.8-6.98-0.74
											c-2.82-0.12-5.25-0.51-7.61-1.13c0.13-0.92,0.28-1.83,0.45-2.73c0.77-4.16,1.95-8.1,3.4-11.93
											c3.27,0.75,7.03,1.73,10.4,3.49c0.13,0.07,0.26,0.14,0.33,0.26c0.07,0.11,0.08,0.25,0.1,0.39
											c0.15,1.19,1.13,2.22,2.3,2.43c2.34,0.57,5.38,0.04,7.87,1.37c1.74,0.93,2.91,2.78,3.16,4.74
											C743.74,432.47,743.7,433.28,743.48,434.05z"/>
										<path style="fill:#6B616B;" d="M743.48,434.05c-3.82,2.32-8.79,2.79-13.27,1.48c-2.31-0.68-4.82-1.8-6.98-0.74
											c-2.82-0.12-5.25-0.51-7.61-1.13c0.13-0.92,0.28-1.83,0.45-2.73c1.89,1.25,4.25,1.78,6.48,1.41
											c0.83-0.14,1.63-0.39,2.46-0.5c2.96-0.39,5.82,1.03,8.75,1.55c3.36,0.6,6.9-0.03,9.87-1.71
											C743.74,432.47,743.7,433.28,743.48,434.05z"/>
									</g>
									<path style="fill:#414143;" d="M689.42,356.92c0.07,3.39,0.15,6.82,1.01,10.1c0.87,3.28,2.61,6.44,5.41,8.36
										c6.86,4.7,19.56,4.15,25.73,3.73c-1.09,15.92-3.17,28.35-3.49,43.34c4.04,0.44,8.08,0.89,12.92,1.46
										c6.49-23.86,14.27-54.91,13.05-57.54c-2.4-5.17-14.81-6.25-23.89-6.84c1.34-2.47,2.69-4.93,4.03-7.4
										c-2.02-4.04-6.67-6.26-11.18-6.46c-4.51-0.2-8.92,1.3-13.07,3.07C695.79,350.51,691.74,352.58,689.42,356.92z"/>
								</g>
							</g>
							<g>
								<g>
									<path style="fill:#F0D192;" d="M723.49,343.83c0.65,3.8,1.5,7.29,2.34,9.48c-0.19,0.1-23.84,8.53-38.01,6.44
										c-0.13-0.4-5.92-23.56-2.67-42.62c0.34-1.99,0.78-3.94,1.33-5.81c0.26-0.88,1.4-3.92,2.9-5.06
										c1.02-0.74,6.44-1.57,9.02-2.31c0.54-0.15,0.96-0.3,1.15-0.45c0.12-0.1,0.25-0.2,0.37-0.32c0.95-0.93,1.76-2.56,2.29-4.29
										c0.14-0.44,0.26-0.87,0.36-1.31c0-0.01,0.01-0.02,0.01-0.02c0.29-1.28,0.43-2.54,0.37-3.54v-0.01c0-0.02,0-0.06-0.01-0.09
										c0-0.14-0.02-0.26-0.04-0.38c0-0.05-0.01-0.08-0.02-0.12c-0.03-0.24-0.09-0.47-0.15-0.65c4.94-1.03,8.32-1.24,13.48-0.3
										c-0.33,0.85-0.59,1.75-0.8,2.68c-0.12,0.48-0.22,0.99-0.32,1.48h-0.01c-0.2,1.09-0.37,2.19-0.55,3.25
										c-0.06,0.35-0.13,0.69-0.19,1.04c-0.08,0.4-0.16,0.86-0.22,1.36c-0.01,0.17-0.03,0.33-0.05,0.5
										c-0.03,0.28-0.04,0.56-0.04,0.84c0,0.9,0.16,1.7,0.67,2.06c0.04,0.03,0.07,0.05,0.09,0.06c0.38,0.24,1.07,0.53,1.94,0.84
										c0.75,0.28,1.67,0.59,2.62,0.92c2.09,0.71,4.49,1.52,6.42,2.41c0.51,5.75-1.37,11.41-2.93,17
										C721.87,330.4,722.41,337.53,723.49,343.83z"/>
									<path style="fill:#E8BD7D;" d="M725.83,353.31c-0.19,0.1-23.84,8.53-38.01,6.44c-0.13-0.4-5.92-23.56-2.67-42.62
										l10.93-2.77c0.26,4.88,2.05,9.49,2.32,14.37c0.49,8.88,2.45,17.93,16.56,16.96c2.93-0.2,5.78-0.88,8.53-1.86
										C724.14,347.63,724.99,351.12,725.83,353.31z"/>
								</g>
								<g>
									<path style="fill:#BA685F;" d="M716.73,306.58c-0.85,7.43-4.26,9.97-7.73,9.5c-5.37-0.67-8.41-7.24-10.6-12.12
										c0.54-0.15,0.96-0.31,1.15-0.46c0.13-0.09,0.25-0.2,0.36-0.32c0.96-0.93,1.76-2.56,2.3-4.29c0.13-0.44,0.25-0.87,0.35-1.31
										c0-0.01,0.01-0.02,0.01-0.02c0.29-1.28,0.43-2.54,0.37-3.54v-0.01c0-0.03,0-0.07-0.01-0.09c0-0.14-0.02-0.26-0.04-0.38
										c0-0.05-0.01-0.08-0.02-0.12c-0.04-0.24-0.09-0.47-0.16-0.65c4.94-1.03,8.33-1.24,13.48-0.3c-0.33,0.85-0.59,1.75-0.8,2.68
										c-0.12,0.48-0.22,0.99-0.32,1.48c-0.2,1.09-0.38,2.19-0.57,3.25c-0.06,0.35-0.12,0.7-0.19,1.04
										c-0.07,0.4-0.16,0.87-0.21,1.36c-0.03,0.17-0.04,0.33-0.06,0.5c-0.03,0.28-0.04,0.56-0.04,0.84c0,0.9,0.16,1.7,0.67,2.07
										c0.04,0.03,0.07,0.05,0.08,0.06C715.17,305.98,715.86,306.27,716.73,306.58z"/>
									<path style="fill:#AB5457;" d="M715.09,296.63c-0.28,1.45-0.49,2.92-0.75,4.29c-0.1,0.53-0.21,1.19-0.27,1.86
										c-0.03,0.28-0.04,0.56-0.04,0.84c-3.05-0.62-5.68-1.65-8.07-4.04c-1.28-1.28-2.67-3.47-3.01-5.56
										c-0.1-0.2-0.19-0.42-0.26-0.64c0.07,0.02,0.13,0.03,0.2,0.05C706.74,294.33,710.9,295.47,715.09,296.63z"/>
								</g>
							</g>
							<g>
								<path style="fill:#BA685F;" d="M711.29,360.08c3.45-1.06,7.7-2.73,11.27-2.74s7.28,1.14,9.88,4
									c0.45,0.49,0.87,1.35,0.44,1.86c-0.34,0.41-0.92,0.23-1.37,0.02c-1.75-0.81-3.5-1.62-5.64-2.63
									c0.96,0.74,1.93,1.49,2.76,2.42c0.83,0.94,1.52,2.08,1.79,3.39c0.09,0.42,0.03,1.03-0.33,1.08
									c-0.19,0.03-0.36-0.12-0.51-0.26c-1.68-1.6-3.36-3.2-5.34-4.62c1.24,1.62,2.21,3.52,2.84,5.57c0.14,0.45,0.26,0.93,0.2,1.41
									c-0.06,0.48-0.36,0.94-0.77,0.99c-0.55,0.07-0.95-0.57-1.22-1.13c-0.78-1.58-1.56-3.17-2.7-4.78
									c0.54,1.59,1.09,3.22,1.15,4.94c0.02,0.47-0.01,0.97-0.21,1.38c-0.2,0.41-0.63,0.7-1.02,0.57
									c-0.44-0.15-0.64-0.72-0.79-1.22c-0.36-1.21-0.72-2.43-0.99-3.77c-3.74,3.19-8.99,3.77-13.16,1.56
									C708.75,365.65,709.19,363.77,711.29,360.08z"/>
								<path style="fill:#F0D192;" d="M689.42,306.48c-7.79,4.07-12.24,39.24-8.39,46.94c3.53,7.05,15.32,14.04,26.96,15.14
									c1.42-2.19,2.74-5.31,4.33-8.97c-7.72-3.89-12.03-6.78-18.65-13.23c1.94-9.17,3.89-18.39,4.47-27.75
									c0.14-2.23,0.19-4.51-0.44-6.65C697.07,309.82,694.94,303.59,689.42,306.48z"/>
							</g>
							<g>
								<path style="fill:#AB5457;" d="M725.477,286.276c2.167-0.432,4.205,0.637,4.554,2.386c0.348,1.75-1.125,3.518-3.292,3.949
									c-2.167,0.431-4.205-0.637-4.554-2.387C721.837,288.476,723.311,286.708,725.477,286.276z"/>
								<path style="fill:#BA685F;" d="M699.48,287.05c-1.1-8.78,3.96-16.66,11.31-17.61c7.35-0.95,15.3,5.33,15.3,14.18
									c0,11.92-3.97,17.61-9.09,18.01C709.62,302.21,700.58,295.83,699.48,287.05z"/>
								<g>
									<path style="fill:none;stroke:#322933;stroke-linecap:round;stroke-miterlimit:10;" d="M709.54,285.76
										c1.49-1.49,3.56-1.62,4.93-1.02"/>
									<path style="fill:none;stroke:#322933;stroke-linecap:round;stroke-miterlimit:10;" d="M720.59,284.83
										c1.03-1.03,3.54-0.75,4.4,0.28"/>
									<path style="fill:none;stroke:#8F3F47;stroke-linecap:round;stroke-miterlimit:10;" d="M719.15,289.88
										c0.09,1.48,0.01,2.97-0.24,4.43"/>
									<ellipse style="fill:#2E3342;" cx="712.71" cy="289.47" rx="0.68" ry="1.04"/>
									<ellipse style="fill:#2E3342;" cx="722.68" cy="289.74" rx="0.68" ry="1.04"/>
								</g>
								<g>
									<path style="fill:#322933;" d="M729.4,277.59c-0.07,0.51-0.28,0.99-0.59,1.39c-0.39,0.55-0.96,0.94-1.6,1.04
										c-0.02,2.09-0.44,4.18-1.23,6.03c0.05-2.55-0.71-5.87-1.28-8.36c-5.55-0.57-10.73-0.14-17.44-0.14
										c-0.44,0.53-0.39,1.66-0.52,2.26c-0.24,1.08-0.57,2.16-1.1,3.12c-0.54,0.98-1.3,1.65-2.03,2.45c-1.07,1.16-1.5,2.8-1.8,4.3
										c-0.77-0.5-1.52-0.95-2.33-1.22c-0.68-3.55-0.79-7.21-0.42-11c-0.91-0.43-1.43-1.54-1.19-2.51
										c0.23-0.97,1.2-1.72,2.43-1.71c-0.49-1.41-0.02-3.11,1.13-4.06c1.15-0.96,2.9-1.12,4.16-0.8c0.13-0.44,0.32-0.86,0.56-1.25
										c0.75-1.19,1.97-2.09,3.34-2.39c1.82-0.4,3.84,0.27,5.18,2.01c0.97-1.46,2.95-2.17,4.62-1.64c1.67,0.52,2.9,2.23,2.94,4.35
										c1.34-1.32,3.71-1.38,5.11-0.14c1.41,1.24,1.64,3.6,0.6,5.16C728.97,275.12,729.56,276.39,729.4,277.59z"/>
									<path style="fill:#4C3F4D;" d="M729.4,277.59c-0.07,0.51-0.28,0.99-0.59,1.39c-0.03-0.53-0.13-1.05-0.33-1.55
										c-0.5-1.23-1.79-2.25-3.09-2c0.39-0.83,0.69-1.33,0.85-1.88c0.16-0.55,0.17-1.16-0.11-1.66c-0.44-0.81-1.5-1.1-2.4-0.92
										c-0.9,0.18-1.68,0.73-2.42,1.27c-0.04-1.28-0.27-2.29-0.81-3.14c-0.54-0.85-1.42-1.51-2.42-1.64
										c-0.49-0.06-1,0.01-1.48,0.14c-1.43,0.39-2.7,1.34-3.49,2.6c-0.75-2.29-2.84-3.57-4.96-3.55c-0.69,0.01-1.4,0.16-2,0.48
										c0.75-1.19,1.97-2.09,3.34-2.39c1.82-0.4,3.84,0.27,5.18,2.01c0.97-1.46,2.95-2.17,4.62-1.64c1.67,0.52,2.9,2.23,2.94,4.35
										c1.34-1.32,3.71-1.38,5.11-0.14c1.41,1.24,1.64,3.6,0.6,5.16C728.97,275.12,729.56,276.39,729.4,277.59z"/>
								</g>
								<g>
									<path style="fill:none;stroke:#D8F1EA;stroke-miterlimit:10;" d="M707.25,291.39c-2.35-1.87-5-3.36-7.81-4.41"/>
									<path style="fill:none;stroke:#D8F1EA;stroke-miterlimit:10;" d="M708.59,299.32c-3.27-2.05-6.22-4.59-8.73-7.52"/>
									<path style="fill:#BA685F;" d="M695.02,288.153c0.594-1.682,2.764-2.45,4.847-1.715c2.083,0.735,3.291,2.695,2.697,4.377
										c-0.594,1.682-2.764,2.45-4.847,1.715S694.426,289.835,695.02,288.153z"/>
									<g>
										<path style="fill:#7ABFB3;" d="M706.55,290.52c6.42,0.59,12.86,0.85,19.45,0.95c0.09,2.46-0.67,4.94-2.12,6.93
											c-1.45,1.99-3.58,3.47-5.97,4.01c-3.29-0.13-6.55-0.87-9.63-2.32C707.04,297.16,706.28,294.02,706.55,290.52z"/>
										<g>
											<path style="fill:#5EA6A1;" d="M708.92,292.96c5.55-0.24,11.13,0.08,16.69,1.04
												C719.92,294.16,714.22,293.84,708.92,292.96z"/>
											<path style="fill:#5EA6A1;" d="M710.17,297.02c4.51-0.08,9.02,0.03,13.55,0.29C719.41,298.89,714.5,298.77,710.17,297.02
												z"/>
										</g>
									</g>
								</g>
							</g>
						</g>
					</g>
				</g>
			</g>
		</g>
	</g>
</g>
</svg>
